<?xml version="1.0" encoding="UTF-8"?>
<svg id="Layer_1" data-name="Layer 1" xmlns="http://www.w3.org/2000/svg" xmlns:xlink="http://www.w3.org/1999/xlink" viewBox="0 0 581 655">
  <defs>
    <style>
      .cls-1, .cls-2, .cls-3 {
        fill: none;
      }

      .cls-4 {
        clip-path: url(#clippath);
      }

      .cls-5 {
        fill: #4d4d4d;
      }

      .cls-2 {
        stroke-miterlimit: 10;
      }

      .cls-2, .cls-3 {
        stroke: #000;
        stroke-width: 5px;
      }

      .cls-3 {
        stroke-linejoin: round;
      }
    </style>
    <clipPath id="clippath">
      <rect class="cls-1" x="56.06" width="457" height="486"/>
    </clipPath>
  </defs>
  <g>
    <line class="cls-2" x1="418.5" y1="31" x2="485.5" y2="138"/>
    <g class="cls-4">
      <g>
        <path d="m348.59,239.49c37.08,9.87,59.21,37.38,59.21,69.98,0,42.46-28.11,79.54-96.89,90.31l-12.86-20.04c53.23-5.68,86.12-33.19,86.12-71.47,0-22.43-14.65-42.76-42.46-50.24-16.45,41.87-40.37,74.46-65.49,95.69,2.39,8.37,4.79,16.45,7.18,23.92l-21.83,6.58c-1.5-5.08-3.29-10.47-4.78-16.45-16.15,9.87-33.79,16.15-49.64,16.15-20.04,0-35.29-11.96-35.29-37.38,0-37.98,33.19-77.15,73.86-95.69.6-14.95,2.09-29.9,3.29-43.66-6.28.3-12.26.3-17.94.3-12.86,0-35.88-1.2-47.85-1.79l-.6-22.43c10.17,1.5,36.18,3.59,48.74,3.59,6.58,0,13.16,0,19.74-.3.9-8.67,1.79-16.45,2.39-22.73.6-4.78.9-10.47.9-14.05l25.12.6c-1.5,3.89-2.69,9.27-3.59,13.16-1.2,6.28-2.39,13.76-3.59,22.43,37.38-1.79,73.27-5.68,103.77-12.56l.3,22.43c-31.1,5.08-70.57,8.97-106.76,10.77-1.2,11.36-2.09,23.92-2.99,36.48,16.45-5.08,34.69-7.77,49.64-7.77,3.59,0,7.18,0,10.77.3l.9-2.69c1.2-4.49,2.69-12.26,2.99-17.05l23.92,5.98c-1.79,3.89-4.19,11.96-5.98,16.45l-.3,1.2Zm-103.77,33.79c-28.71,16.45-50.54,45.75-50.54,69.68,0,11.96,5.68,17.94,16.75,17.94s25.72-5.08,40.67-15.55c-4.19-21.23-6.88-44.86-6.88-66.99v-5.08Zm71.17-18.54c-19.14,0-36.18,4.19-50.24,9.27v11.66c0,18.84,2.09,36.78,5.08,53.83,19.44-18.24,37.08-42.17,49.94-74.76h-4.79Z"/>
        <polygon class="cls-3" points="485.83 506 93.83 506 93.83 31.28 418 31.28 387.06 130 485.83 138 485.83 506"/>
      </g>
    </g>
    <g>
      <rect class="cls-2" x="93.56" y="532.5" width="117.14" height="120"/>
      <rect class="cls-2" x="232.82" y="532.5" width="117.14" height="120"/>
      <rect class="cls-2" x="368.42" y="532.5" width="117.14" height="120"/>
      <path d="m158.01,604.65h-13.14l-3.48,10.99h-4.61l12.21-35.95h5.05l12.21,35.95h-4.81l-3.43-10.99Zm-1.13-3.63l-1.72-5.49c-1.32-4.07-2.45-7.99-3.63-12.16h-.2c-1.13,4.22-2.3,8.09-3.58,12.16l-1.77,5.49h10.89Z"/>
      <path d="m314.17,614.07v3.33h-43.99v-3.33h14.22v-8.78h-7.26v1.77h-3.43v-19.18h10.69v-6.82h-12.8v-3.33h41.15v3.33h-13.63v6.82h11.23v19.03h-3.58v-1.62h-7.65v8.78h15.06Zm-29.77-12.06v-10.84h-7.26v10.84h7.26Zm3.58-14.12h7.65v-6.82h-7.65v6.82Zm7.65,3.29h-7.65v10.84h7.65v-10.84Zm-7.65,22.9h7.65v-8.78h-7.65v8.78Zm11.13-22.9v10.84h7.65v-10.84h-7.65Z"/>
      <path d="m436.15,591.56c6.08,1.62,9.71,6.13,9.71,11.48,0,6.96-4.61,13.04-15.89,14.81l-2.11-3.29c8.73-.93,14.12-5.44,14.12-11.72,0-3.68-2.4-7.01-6.96-8.24-2.7,6.87-6.62,12.21-10.74,15.69.39,1.37.78,2.7,1.18,3.92l-3.58,1.08c-.25-.83-.54-1.72-.78-2.7-2.65,1.62-5.54,2.65-8.14,2.65-3.29,0-5.79-1.96-5.79-6.13,0-6.23,5.44-12.65,12.11-15.69.1-2.45.34-4.9.54-7.16-1.03.05-2.01.05-2.94.05-2.11,0-5.88-.2-7.85-.29l-.1-3.68c1.67.25,5.93.59,7.99.59,1.08,0,2.16,0,3.24-.05.15-1.42.29-2.7.39-3.73.1-.78.15-1.72.15-2.3l4.12.1c-.25.64-.44,1.52-.59,2.16-.2,1.03-.39,2.26-.59,3.68,6.13-.29,12.02-.93,17.02-2.06l.05,3.68c-5.1.83-11.57,1.47-17.51,1.77-.2,1.86-.34,3.92-.49,5.98,2.7-.83,5.69-1.27,8.14-1.27.59,0,1.18,0,1.77.05l.15-.44c.2-.74.44-2.01.49-2.8l3.92.98c-.29.64-.69,1.96-.98,2.7l-.05.2Zm-17.02,5.54c-4.71,2.7-8.29,7.5-8.29,11.43,0,1.96.93,2.94,2.75,2.94s4.22-.83,6.67-2.55c-.69-3.48-1.13-7.36-1.13-10.99v-.83Zm11.67-3.04c-3.14,0-5.93.69-8.24,1.52v1.91c0,3.09.34,6.03.83,8.83,3.19-2.99,6.08-6.91,8.19-12.26h-.78Z"/>
    </g>
  </g>
  <path class="cls-5" d="m0,449.5h581v82c0,8.83-7.17,16-16,16H16c-8.83,0-16-7.17-16-16v-82h0Z"/>
</svg>