<?xml version="1.0" encoding="UTF-8"?>
<svg id="Layer_1" data-name="Layer 1" xmlns="http://www.w3.org/2000/svg" viewBox="0 0 281.95 40.59">
  <defs>
    <style>
      .cls-1 {
        fill: #1a1a1a;
      }
    </style>
  </defs>
  <path class="cls-1" d="m33.03,9.4c-.42-1.61-.71-2.5-1.13-3.51-1.01-2.38-1.9-3.33-5.48-3.33h-7.44v30.59c0,4.46.42,5.12,5.65,5.83v.71h-15.36v-.71c5.24-.83,5.48-1.43,5.48-5.83V2.56h-7.56c-3.33,0-3.87,1.07-4.7,2.62-.77,1.55-1.07,2.68-1.55,4.23h-.95C.42,6.19.71,2.98.89,0h.6c.71.89,1.07,1.01,3.21,1.01h25.18c1.73,0,2.26-.18,2.8-1.01h.71c0,2.44.24,5.95.54,9.23l-.89.18Z"/>
  <path class="cls-1" d="m53.04,13.51c-3.04.89-3.69,1.19-5.36,3.87-1.84,2.92-3.39,5.65-5.48,9.34-.54.95-.6,1.43-.6,2.2v5.42c0,3.33.24,3.87,4.23,4.64v.71h-12.32v-.71c3.81-.54,4.05-1.19,4.05-4.64v-4.76c0-1.25,0-1.43-.77-2.8-1.13-2.14-2.8-5.24-5.48-9.76-1.55-2.62-2.74-3.15-4.94-3.51v-.71h10.65v.71l-1.25.42c-1.19.42-1.43.71-.83,1.73,1.07,1.9,4.46,7.98,5.95,10.59,2.08-3.69,4.17-7.44,5.3-9.76.83-1.67.71-2.08-1.61-2.74l-.95-.24v-.71h9.4v.71Z"/>
  <path class="cls-1" d="m67.25,12.8c6.31,0,9.76,2.92,9.76,7.68,0,5-3.87,7.92-8.39,8.57-.71.06-1.25.12-1.9-.06l-3.57-.83v6.55c0,2.98.24,3.63,4.4,4.29v.71h-12.56v-.71c3.81-.54,4.11-1.25,4.11-4.11v-16.67c0-3.57-.48-3.87-4.11-4.7v-.71h12.26Zm-4.11,14.28c.54.24,2.02.48,3.63.48,2.02,0,5.89-.83,5.89-6.73,0-4.17-2.38-6.84-6.55-6.84-2.56,0-2.98.54-2.98,2.68v10.42Z"/>
  <path class="cls-1" d="m99.47,32.85c-.3,1.61-1.19,5.59-1.55,6.84h-21.55v-.71c4.7-.71,4.76-1.19,4.76-5.06v-15.71c0-3.75-.3-3.99-4.11-4.7v-.71h14.28c2.08,0,4.52-.06,5.42-.12.06,1.13.12,4.05.36,6.49l-.83.12c-.42-1.61-.83-2.56-1.37-3.45-.77-1.37-2.02-1.61-3.51-1.61h-4.76c-1.31,0-1.43.06-1.43,1.67v9.05h4.7c3.45,0,3.69-.42,4.34-3.69h.77v8.81h-.77c-.65-3.15-1.13-3.51-4.34-3.51h-4.7v8.03c0,1.9.18,3.33,2.08,3.57.71.12,1.9.18,3.63.18,3.81,0,4.82-.3,5.77-1.61.77-1.07,1.25-2.2,2.08-4.05l.71.18Z"/>
  <path class="cls-1" d="m123.99,10.83c-1.19-3.81-2.86-8.15-8.33-8.15-3.45,0-5.71,2.44-5.71,5.77s2.2,5.24,7.44,7.86c6.37,3.15,10.42,6.25,10.42,12.14,0,7.02-5.83,12.14-14.34,12.14-3.81,0-7.2-1.01-10-1.85-.36-1.37-1.37-7.56-1.79-10.36l2.32-.54c1.19,3.75,4.52,10.24,10.36,10.24,3.63,0,5.83-2.26,5.83-6.07,0-3.45-2.14-5.48-7.14-8.15-6.19-3.33-10.24-6.31-10.24-12.5S107.69.18,116.61.18c4.11,0,7.2.89,8.51,1.07.24,2.2.65,5.3,1.13,9.05l-2.26.54Z"/>
  <path class="cls-1" d="m146.94,39.7v-2.2c3.45-.24,3.81-.65,3.81-4.76v-6.61h-11.07v6.61c0,4.05.12,4.4,3.81,4.76v2.2h-15.53v-2.2c3.75-.3,4.05-.65,4.05-4.76v-14.52c0-4.11-.36-4.4-4.05-4.7v-2.2h15.53v2.2c-3.45.24-3.81.54-3.81,4.64v5.12h11.07v-5.12c0-4.05-.42-4.52-3.87-4.64v-2.2h15.59v2.26c-3.69.24-4.05.54-4.05,4.58v14.58c0,4.11.12,4.52,4.05,4.76v2.2h-15.53Z"/>
  <path class="cls-1" d="m195.69,40.06h-2.08c-6.84,0-8.69-1.49-10.3-3.81-1.49-2.08-2.68-4.4-3.93-6.73-.71-1.31-1.19-1.79-2.8-1.79h-.95v5.3c0,3.87.54,4.11,4.23,4.46v2.2h-15.89v-2.2c3.69-.36,4.11-.65,4.11-4.4v-15.12c0-3.81-.48-4.23-4.11-4.46v-2.2h16.61c3.63,0,5.89.36,7.86,1.49,2.08,1.13,3.33,3.15,3.33,5.77,0,4.05-2.92,6.37-6.07,7.38.77,1.49,2.74,4.52,4.17,6.61,1.49,2.02,2.32,3.15,3.39,4.11.83.77,1.9,1.01,2.74,1.25l-.3,2.14Zm-18.57-14.64c1.84,0,3.33-.24,4.58-1.07,1.31-.95,1.84-2.44,1.84-4.52,0-4.29-2.32-6.19-5.48-6.19-1.67,0-2.44.48-2.44,2.02v9.76h1.49Z"/>
  <path class="cls-1" d="m197.31,39.7v-2.2c3.57-.3,4.11-.54,4.11-4.46v-15.06c0-3.93-.54-4.23-4.11-4.46v-2.2h15.83v2.2c-3.63.3-4.05.54-4.05,4.52v15c0,3.93.3,4.17,4.05,4.46v2.2h-15.83Z"/>
  <path class="cls-1" d="m247.68,13.51c-3.57.36-4.05,1.13-4.17,3.27-.12,1.79-.18,2.92-.18,6.73v16.55h-3.21l-18.33-21.13v8.51c0,4.23.06,5.18.18,6.61.18,2.5,1.13,3.04,4.88,3.45v2.2h-12.38v-2.2c2.5-.18,4.05-.89,4.23-3.45.12-1.49.18-2.5.18-6.61v-10.24c0-.77-.12-1.13-.65-1.85-.89-1.19-1.9-1.67-4.23-1.84v-2.2h10.77l15.59,17.38v-5.18c0-3.81-.06-5.24-.18-6.79-.18-2.44-1.49-3.04-4.88-3.21v-2.2h12.38v2.2Z"/>
  <path class="cls-1" d="m271,39.7c-1.25-1.96-6.49-9.34-8.09-11.61-1.07-1.49-1.61-1.61-2.38-1.67v6.61c0,3.93.54,4.17,4.05,4.52v2.14h-15.71v-2.14c3.51-.42,4.05-.6,4.05-4.46v-15.12c0-4.11-.48-4.17-4.05-4.46v-2.2h15.36v2.2c-3.15.36-3.69.48-3.69,4.52v6.49c.6-.06,1.79-.6,2.74-1.43,2.26-2.08,5.3-5.42,6.61-7.2.89-1.31.77-2.02-.65-2.26l-1.61-.12v-2.2h13.03v2.2c-3.21.3-5,.77-7.02,2.68-1.43,1.31-4.29,4.29-6.13,6.25,3.04,4.4,6.79,9.17,8.63,11.49,2.32,2.98,3.69,3.45,5.83,3.63v2.14h-10.95Z"/>
</svg>